<svg height="512" viewBox="0 0 512 512" width="512" xmlns="http://www.w3.org/2000/svg"><g fill="none" fill-rule="evenodd"><g transform="translate(0 32)"><path d="m43.2736715 433.305839c-17.047384-263.761981-25.571076-395.6429718-25.571076-395.6429718 102.3396435 130.6326288 153.5094655 195.9489438 153.5094655 195.9489438 54.584109-122.484309 81.876163-183.726463 81.876163-183.726463 55.792641 121.631663 83.688961 182.447495 83.688961 182.447495 80.357844-90.313173 120.536766-135.4697598 120.536766-135.4697598l-35.073287 336.4427558z" fill="#ff0"/><path d="m469.157781 52.8572706-14.492464-10.147733 57.975961-31.3932028-9.671015 65.2166906-14.153668-9.9105056-154.563609 190.8812622-77.989435-177.5801341-77.916957 177.5776021-146.9852976-181.5222835 35.2166933 343.1472945-23.815476 2.444147-43.43146715-423.19108054 172.88583345 213.50864154 84.036636-191.5247333 84.119807 191.5388473z" fill="#000" fill-rule="nonzero" stroke="#000"/></g><path d="m0 0h512v512h-512z" fill="none"/></g></svg>