<svg height="32" viewBox="0 0 36 32" width="36" xmlns="http://www.w3.org/2000/svg"><g fill="none" fill-rule="evenodd"><path d="m4.70460447 31.081615c-1.0654615-16.4851239-1.59819225-24.7276858-1.59819225-24.7276858 6.39622772 8.1645393 9.59434158 12.246809 9.59434158 12.246809 3.4115068-7.6552693 5.1172602-11.48290395 5.1172602-11.48290395 3.48704 7.60197895 5.2305601 11.40296845 5.2305601 11.40296845 5.0223652-5.6445733 7.5335478-8.46686 7.5335478-8.46686l-2.1920804 21.0276723z" fill="#ff0"/><path d="m29.9157514 7.50128594-1.3388179-.9374504 6.7056224-3.63100428-1.11857 7.54310044-1.4285792-1.00030186-10.0922532 12.46361976-4.6262755-10.5339221-4.6221783 10.5342324-8.13852136-10.0508214 1.96753611 19.1714392-3.41584368.3505629-3.14577767-30.65208568 11.8534243 14.63861138 5.4999213-12.5346636 5.5055521 12.5360143z" fill="#000" fill-rule="nonzero"/></g></svg>