<svg height="30" viewBox="0 0 195 30" width="195" xmlns="http://www.w3.org/2000/svg" aria-labelledby="logoTitle logoDesc" role="img"><title id="logoTitle">Kronan.io</title><desc id="logoDesc">Logotyp för Kronan.io</desc><g fill="none" transform="translate(1)"><path d="m44.1437499 26h-4.71875v-22.546875h4.71875v10.046875h.28125l8.328125-10.046875h5.25l-8.21875 9.890625 8.796875 12.65625h-5.65625l-6.546875-9.4375-2.234375 2.640625zm17.9090278 0v-17.234375h4.40625v2.75h.28125c.453125-1.71875 2.234375-3.03125 4.421875-3.03125.625 0 1.390625.078125 1.78125.21875v4.140625c-.359375-.140625-1.421875-.28125-2.15625-.28125-2.484375 0-4.1875 1.46875-4.1875 3.890625v9.546875zm21.5496528.375c-5.296875 0-8.484375-3.359375-8.484375-9 0-5.578125 3.234375-8.984375 8.484375-8.984375s8.484375 3.390625 8.484375 8.984375c0 5.640625-3.1875 9-8.484375 9zm0-3.71875c2.421875 0 3.8125-1.9375 3.8125-5.28125 0-3.3125-1.40625-5.265625-3.8125-5.265625-2.421875 0-3.8125 1.953125-3.8125 5.265625 0 3.359375 1.375 5.28125 3.8125 5.28125zm12.5652778 3.34375v-17.234375h4.4062497v2.765625h.28125c.796875-1.9375 2.546875-3.140625 5.09375-3.140625 3.828125 0 5.890625 2.34375 5.890625 6.46875v11.140625h-4.546875v-10.0625c0-2.375-1.015625-3.625-3.171875-3.625-2.109375 0-3.40625 1.484375-3.40625 3.75v9.9375zm26.6746527-3.15625c2.109375 0 3.703125-1.34375 3.703125-3.09375v-1.265625l-3.484375.21875c-1.953125.140625-2.90625.84375-2.90625 2.078125 0 1.28125 1.109375 2.0625 2.6875 2.0625zm-1.5 3.421875c-3.3125 0-5.640625-2.03125-5.640625-5.1875 0-3.125 2.390625-4.9375 6.671875-5.1875l4.171875-.25v-1.40625c0-1.4375-1.03125-2.25-2.90625-2.25-1.640625 0-2.734375.5625-3.109375 1.59375h-4.1875c.296875-3.1875 3.21875-5.1875 7.546875-5.1875 4.5625 0 7.140625 2.15625 7.140625 5.84375v11.765625h-4.40625v-2.25h-.28125c-.890625 1.578125-2.765625 2.515625-5 2.515625zm14.534028-.265625v-17.234375h4.40625v2.765625h.28125c.796875-1.9375 2.546875-3.140625 5.09375-3.140625 3.828125 0 5.890625 2.34375 5.890625 6.46875v11.140625h-4.546875v-10.0625c0-2.375-1.015625-3.625-3.171875-3.625-2.109375 0-3.40625 1.484375-3.40625 3.75v9.9375zm23.737153.421875c-1.671875 0-2.765625-1.140625-2.765625-2.71875s1.09375-2.703125 2.765625-2.703125c1.6875 0 2.765625 1.125 2.765625 2.703125s-1.078125 2.71875-2.765625 2.71875zm8.252778-.421875v-17.234375h4.546875v17.234375zm2.28125-19.8125c-1.40625 0-2.578125-1.15625-2.578125-2.609375s1.171875-2.59375 2.578125-2.59375c1.421875 0 2.578125 1.140625 2.578125 2.59375s-1.15625 2.609375-2.578125 2.609375zm14.877777 20.1875c-5.296875 0-8.484375-3.359375-8.484375-9 0-5.578125 3.234375-8.984375 8.484375-8.984375s8.484375 3.390625 8.484375 8.984375c0 5.640625-3.1875 9-8.484375 9zm0-3.71875c2.421875 0 3.8125-1.9375 3.8125-5.28125 0-3.3125-1.40625-5.265625-3.8125-5.265625-2.421875 0-3.8125 1.953125-3.8125 5.265625 0 3.359375 1.375 5.28125 3.8125 5.28125z" fill="#000"/><path d="m3.70460447 29.081615c-1.0654615-16.4851239-1.59819225-24.7276858-1.59819225-24.7276858 6.39622772 8.1645393 9.59434158 12.246809 9.59434158 12.246809 3.4115068-7.65526931 5.1172602-11.48290395 5.1172602-11.48290395 3.48704 7.60197895 5.2305601 11.40296845 5.2305601 11.40296845 5.0223652-5.6445733 7.5335478-8.46686 7.5335478-8.46686l-2.1920804 21.0276723z" fill="#ff0"/><path d="m29.6417436 5.39924386-1.1153139-.78095126 5.1148483-2.76962152-.8532118 5.75365155-1.1478179-.80371078-9.8692712 12.18824385-4.7543087-10.82545051-4.7499881 10.82551891-8.67945541-10.71885819 2.08805596 20.34577039-2.42106875.2484707-2.92316555-28.48297954 11.31249025 13.97057454 5.3721115-12.24337696 5.3775189 12.24448586z" fill="#000" stroke="#000"/></g></svg>
